<?xml version="1.0" encoding="UTF-8" standalone="no"?>
<!-- Created with Inkscape (http://www.inkscape.org/) -->

<svg
   width="1920"
   height="1080"
   viewBox="0 0 1920 1080"
   version="1.1"
   id="svg1"
   inkscape:version="1.3.2 (091e20e, 2023-11-25, custom)"
   sodipodi:docname="3d.svg"
   xmlns:inkscape="http://www.inkscape.org/namespaces/inkscape"
   xmlns:sodipodi="http://sodipodi.sourceforge.net/DTD/sodipodi-0.dtd"
   xmlns="http://www.w3.org/2000/svg"
   xmlns:svg="http://www.w3.org/2000/svg">
  <sodipodi:namedview
     id="namedview1"
     pagecolor="#505050"
     bordercolor="#eeeeee"
     borderopacity="1"
     inkscape:showpageshadow="0"
     inkscape:pageopacity="0"
     inkscape:pagecheckerboard="0"
     inkscape:deskcolor="#505050"
     inkscape:document-units="px"
     inkscape:zoom="1.2291667"
     inkscape:cx="1357.4237"
     inkscape:cy="201.35593"
     inkscape:window-width="1920"
     inkscape:window-height="1051"
     inkscape:window-x="-9"
     inkscape:window-y="-9"
     inkscape:window-maximized="1"
     inkscape:current-layer="layer1" />
  <defs
     id="defs1" />
  <g
     inkscape:label="Layer 1"
     inkscape:groupmode="layer"
     id="layer1">
    <ellipse
       style="fill:#ffffff;stroke:#1a1a1a;stroke-width:2;stroke-linecap:round;stroke-linejoin:round;paint-order:markers fill stroke"
       id="ellipse1"
       cx="353.86859"
       cy="310.56271"
       rx="102.50848"
       ry="34.983051" />
    <rect
       style="fill:#ffffff;stroke:none;stroke-width:1.29062;stroke-linecap:round;stroke-linejoin:round;paint-order:markers fill stroke"
       id="rect1"
       width="205.01695"
       height="224.9536"
       x="251.36009"
       y="85.6091" />
    <ellipse
       style="fill:#ffffff;stroke:#1a1a1a;stroke-width:2;stroke-linecap:round;stroke-linejoin:round;paint-order:markers fill stroke"
       id="path1"
       cx="353.86859"
       cy="85.6091"
       rx="102.50848"
       ry="34.983051" />
    <ellipse
       style="fill:#ffffff;stroke:#1a1a1a;stroke-width:2;stroke-linecap:round;stroke-linejoin:round;paint-order:markers fill stroke"
       id="ellipse2"
       cx="564.66687"
       cy="294.07089"
       rx="89.167358"
       ry="62.64407" />
    <rect
       style="fill:#ffffff;stroke:none;stroke-width:1.64891;stroke-linecap:round;stroke-linejoin:round;paint-order:markers fill stroke"
       id="rect2"
       width="178.33473"
       height="132.94885"
       x="475.49951"
       y="161.12207" />
    <ellipse
       style="fill:#ffffff;stroke:#1a1a1a;stroke-width:2;stroke-linecap:round;stroke-linejoin:round;paint-order:markers fill stroke"
       id="path2"
       cx="564.66687"
       cy="161.12207"
       rx="89.167358"
       ry="62.64407" />
    <ellipse
       style="fill:#ffffff;stroke:#1a1a1a;stroke-width:2;stroke-linecap:round;stroke-linejoin:round;paint-order:markers fill stroke"
       id="ellipse3"
       cx="749.96802"
       cy="270.20612"
       rx="76.511353"
       ry="66.266426" />
    <rect
       style="fill:#ffffff;stroke:none;stroke-width:1.61044;stroke-linecap:round;stroke-linejoin:round;paint-order:markers fill stroke"
       id="rect3"
       width="154.02271"
       height="79.558617"
       x="672.95667"
       y="190.64752" />
    <ellipse
       style="fill:#ffffff;stroke:#1a1a1a;stroke-width:2;stroke-linecap:round;stroke-linejoin:round;paint-order:markers fill stroke"
       id="path3"
       cx="749.46802"
       cy="190.64752"
       rx="76.511353"
       ry="66.266426" />
    <ellipse
       style="fill:#ffffff;stroke:#1a1a1a;stroke-width:2;stroke-linecap:round;stroke-linejoin:round;paint-order:markers fill stroke"
       id="ellipse4"
       cx="135.42412"
       cy="316.22345"
       rx="96.81356"
       ry="21.152542" />
    <rect
       style="fill:#ffffff;stroke:none;stroke-width:1.92901;stroke-linecap:round;stroke-linejoin:round;paint-order:markers fill stroke"
       id="rect4"
       width="193.62712"
       height="265.89774"
       x="38.610542"
       y="50.325722" />
    <ellipse
       style="fill:#ffffff;stroke:#1a1a1a;stroke-width:2;stroke-linecap:round;stroke-linejoin:round;paint-order:markers fill stroke"
       id="path4"
       cx="135.42412"
       cy="50.325722"
       rx="96.81356"
       ry="21.152542" />
    <circle
       style="fill:#ffffff;stroke:#1a1a1a;stroke-width:1.27685;stroke-linecap:round;stroke-linejoin:round;paint-order:markers fill stroke"
       id="path5"
       cx="124.94961"
       cy="482.72519"
       r="85.70063" />
    <path
       style="fill:none;stroke:#1a1a1a;stroke-width:1.27685;stroke-linecap:round;stroke-linejoin:round;stroke-dasharray:1.27685, 2.55371;stroke-dashoffset:0;paint-order:markers fill stroke"
       d="m 124.9496,397.02455 c 31.72458,52.55624 36.97502,113.1349 0,171.40127"
       id="path6"
       sodipodi:nodetypes="cc" />
    <path
       style="fill:none;stroke:#1a1a1a;stroke-width:1.27685;stroke-linecap:round;stroke-linejoin:round;stroke-dasharray:1.27685, 2.55371;stroke-dashoffset:0;paint-order:markers fill stroke"
       d="m 210.65023,482.72519 c -10.73912,23.27649 -99.54083,32.92762 -171.401262,0"
       id="path7"
       sodipodi:nodetypes="cc" />
    <circle
       style="fill:#ffffff;stroke:#1a1a1a;stroke-width:1.32961;stroke-linecap:round;stroke-linejoin:round;stroke-dasharray:none;stroke-dashoffset:0;paint-order:markers fill stroke"
       id="path8"
       cx="353.86859"
       cy="493.34"
       r="74.638344" />
    <ellipse
       style="fill:none;stroke:#1a1a1a;stroke-width:1.32379;stroke-linecap:round;stroke-linejoin:round;stroke-dasharray:none;stroke-dashoffset:0;paint-order:markers fill stroke"
       id="path9"
       cx="353.56094"
       cy="493.34"
       rx="17.976311"
       ry="74.639145" />
    <ellipse
       style="fill:none;stroke:#1a1a1a;stroke-width:1.32109;stroke-linecap:round;stroke-linejoin:round;stroke-dasharray:none;stroke-dashoffset:0;paint-order:markers fill stroke"
       id="ellipse16"
       cx="493.34"
       cy="-353.56094"
       rx="17.976978"
       ry="74.332802"
       transform="rotate(90)" />
    <circle
       style="fill:none;stroke:#1a1a1a;stroke-width:2;stroke-linecap:round;stroke-linejoin:round;stroke-dasharray:none;stroke-dashoffset:0;paint-order:markers fill stroke"
       id="path16"
       cx="564.66687"
       cy="488.66272"
       r="85.423729" />
    <path
       style="fill:none;stroke:#1a1a1a;stroke-width:2;stroke-linecap:round;stroke-linejoin:round;stroke-dasharray:none;stroke-dashoffset:0;paint-order:markers fill stroke"
       d="m 564.66688,403.23899 c -35.79179,46.64575 -31.44356,136.64007 0,170.84746"
       id="path17"
       sodipodi:nodetypes="cc" />
    <path
       style="fill:none;stroke:#1a1a1a;stroke-width:2;stroke-linecap:round;stroke-linejoin:round;stroke-dasharray:none;stroke-dashoffset:0;paint-order:markers fill stroke"
       d="m 650.0906,488.66272 c -58.6769,-43.9375 -142.97062,-29.85691 -170.84746,0"
       id="path18"
       sodipodi:nodetypes="cc" />
    <rect
       style="fill:#ffffff;stroke:#1a1a1a;stroke-width:2;stroke-linecap:round;stroke-linejoin:round;stroke-dasharray:none;stroke-dashoffset:0;paint-order:markers fill stroke"
       id="rect18"
       width="205.94785"
       height="205.94785"
       x="1029.7928"
       y="686.28992" />
    <path
       style="fill:#ffffff;stroke:#1a1a1a;stroke-width:2;stroke-linecap:round;stroke-linejoin:round;stroke-dasharray:none;stroke-dashoffset:0;paint-order:markers fill stroke"
       d="m 1235.7407,892.23779 98.1766,-56.68228"
       id="path19" />
    <path
       style="fill:#ffffff;stroke:#1a1a1a;stroke-width:2;stroke-linecap:round;stroke-linejoin:round;stroke-dasharray:none;stroke-dashoffset:0;paint-order:markers fill stroke"
       d="m 1235.7407,686.28992 98.1766,-56.68228"
       id="path20" />
    <path
       style="fill:#ffffff;stroke:#1a1a1a;stroke-width:2;stroke-linecap:round;stroke-linejoin:round;stroke-dasharray:none;stroke-dashoffset:0;paint-order:markers fill stroke"
       d="m 1029.7928,686.28992 98.1766,-56.68228"
       id="path21" />
    <path
       style="fill:none;stroke:#1a1a1a;stroke-width:2;stroke-linecap:round;stroke-linejoin:round;stroke-dasharray:none;stroke-dashoffset:0;paint-order:markers fill stroke"
       d="m 1127.9694,629.60764 h 205.9479 v 205.94787"
       id="path22"
       sodipodi:nodetypes="ccc" />
    <path
       style="fill:#ffffff;stroke:#1a1a1a;stroke-width:0.813559;stroke-linecap:round;stroke-linejoin:round;stroke-dasharray:none;stroke-dashoffset:0;paint-order:markers fill stroke"
       d="m 1081.2858,657.96529 47.2102,-27.25505 100.3671,0.10251 100.3672,0.1025 -47.0232,27.15255 -47.0232,27.15254 h -100.5541 -100.5541 z"
       id="path23" />
    <path
       style="fill:#ffffff;stroke:#1a1a1a;stroke-width:0.813559;stroke-linecap:round;stroke-linejoin:round;stroke-dasharray:none;stroke-dashoffset:0;paint-order:markers fill stroke"
       d="m 1236.8174,788.69085 v -101.64 l 47.7519,-27.55932 c 26.2635,-15.15763 47.8618,-27.55933 47.9962,-27.55933 0.1343,0 0.2443,45.64539 0.2443,101.4342 v 101.4342 l -47.0848,27.17447 c -25.8966,14.94596 -47.4966,27.44027 -48,27.76513 l -0.9152,0.59066 z"
       id="path24" />
    <rect
       style="fill:#ffffff;stroke:#1a1a1a;stroke-width:1.60181;stroke-linecap:round;stroke-linejoin:round;stroke-dasharray:none;stroke-dashoffset:0;paint-order:markers fill stroke"
       id="rect24"
       width="108.81467"
       height="108.81467"
       x="1453.6321"
       y="-199.86671"
       transform="matrix(0.88539526,0.46483893,-0.88539526,0.46483893,0,0)" />
    <path
       style="fill:#ffffff;stroke:#1a1a1a;stroke-width:2;stroke-linecap:round;stroke-linejoin:round;stroke-dasharray:none;stroke-dashoffset:0;paint-order:markers fill stroke"
       d="m 1367.656,633.38023 v 210.6046"
       id="path25" />
    <path
       style="fill:#ffffff;stroke:#1a1a1a;stroke-width:2;stroke-linecap:round;stroke-linejoin:round;stroke-dasharray:none;stroke-dashoffset:0;paint-order:markers fill stroke"
       d="m 1464,683.96154 v 210.6046"
       id="path26" />
    <path
       style="fill:#ffffff;stroke:#1a1a1a;stroke-width:2;stroke-linecap:round;stroke-linejoin:round;stroke-dasharray:none;stroke-dashoffset:0;paint-order:markers fill stroke"
       d="m 1560.344,633.38025 v 210.6046"
       id="path27" />
    <path
       style="fill:none;stroke:none;stroke-width:2;stroke-linecap:round;stroke-linejoin:round;stroke-dasharray:none;stroke-dashoffset:0;paint-order:markers fill stroke"
       d="m 1367.656,843.98483 96.344,50.58131 96.344,-50.58129"
       id="path31" />
    <path
       style="fill:none;stroke:#1a1a1a;stroke-width:2;stroke-linecap:round;stroke-linejoin:round;stroke-dasharray:none;stroke-dashoffset:0;paint-order:markers fill stroke"
       d="m 1367.656,843.98483 96.344,50.58131 96.344,-50.58129"
       id="path32" />
    <path
       style="fill:#ffffff;stroke:#1a1a1a;stroke-width:0.575273;stroke-linecap:round;stroke-linejoin:round;stroke-dasharray:none;stroke-dashoffset:0;paint-order:markers fill stroke"
       d="m 1415.7014,867.92838 -46.741,-24.56069 -0.072,-104.14039 c -0.04,-57.27721 0.025,-104.13724 0.1438,-104.13339 0.1189,0.004 21.2496,11.05395 46.9571,24.55578 l 46.7409,24.5488 0.072,104.16161 c 0.04,57.28889 -0.025,104.15427 -0.1438,104.1453 -0.1188,-0.009 -21.2495,-11.06864 -46.957,-24.57702 z"
       id="path33" />
    <path
       style="fill:#ffffff;stroke:#1a1a1a;stroke-width:0.575273;stroke-linecap:round;stroke-linejoin:round;stroke-dasharray:none;stroke-dashoffset:0;paint-order:markers fill stroke"
       d="m 1465.2464,788.38792 0.072,-104.19565 46.7409,-24.54743 c 25.7076,-13.50108 46.8382,-24.54979 46.9571,-24.55268 0.1189,-0.003 0.1836,46.85501 0.1438,104.12867 l -0.072,104.13392 -46.5971,24.47003 c -25.6284,13.45852 -46.7591,24.535 -46.9571,24.61441 -0.2878,0.11546 -0.3454,-20.72583 -0.2876,-104.05127 z"
       id="path34" />
    <rect
       style="fill:#ffffff;stroke:#1a1a1a;stroke-width:2.08058;stroke-linecap:round;stroke-linejoin:round;stroke-dasharray:none;stroke-dashoffset:0;paint-order:markers fill stroke"
       id="rect34"
       width="120.90984"
       height="64.952751"
       x="1869.7875"
       y="483.89633"
       transform="matrix(0.99214654,0.12508098,-0.49487138,0.86896623,0,0)" />
    <path
       style="fill:#ffffff;stroke:#1a1a1a;stroke-width:2;stroke-linecap:round;stroke-linejoin:round;stroke-dasharray:none;stroke-dashoffset:0;paint-order:markers fill stroke"
       d="M 1583.4935,710.80618 V 820.44645"
       id="path35" />
    <path
       style="fill:#ffffff;stroke:#1a1a1a;stroke-width:2;stroke-linecap:round;stroke-linejoin:round;stroke-dasharray:none;stroke-dashoffset:0;paint-order:markers fill stroke"
       d="M 1703.4538,725.92969 V 835.56996"
       id="path36" />
    <path
       style="fill:#ffffff;stroke:#1a1a1a;stroke-width:2;stroke-linecap:round;stroke-linejoin:round;stroke-dasharray:none;stroke-dashoffset:0;paint-order:markers fill stroke"
       d="M 1735.597,669.48794 V 779.12821"
       id="path37" />
    <path
       style="fill:none;stroke:#1a1a1a;stroke-width:2;stroke-linecap:round;stroke-linejoin:round;stroke-dasharray:none;stroke-dashoffset:0;paint-order:markers fill stroke"
       d="m 1735.597,779.12821 -32.1432,56.44175 -119.9603,-15.12351"
       id="path38" />
    <path
       style="fill:#ffffff;stroke:#1a1a1a;stroke-width:0.575273;stroke-linecap:round;stroke-linejoin:round;stroke-dasharray:none;stroke-dashoffset:0;paint-order:markers fill stroke"
       d="m 1643.7252,826.87214 c -32.1937,-4.06766 -58.6311,-7.40399 -58.7498,-7.41408 -0.1186,-0.0101 -0.2157,-24.15824 -0.2157,-53.66257 0,-41.55661 0.078,-53.64424 0.3455,-53.64424 0.5347,0 117.1445,14.71607 117.2267,14.79394 0.04,0.0378 0.04,24.20093 0,53.69575 l -0.073,53.62694 z"
       id="path39" />
    <path
       style="fill:#ffffff;stroke:#1a1a1a;stroke-width:0.575273;stroke-linecap:round;stroke-linejoin:round;stroke-dasharray:none;stroke-dashoffset:0;paint-order:markers fill stroke"
       d="m 1704.7042,778.36638 v -52.38706 l 14.7029,-25.82614 c 8.0865,-14.20438 14.7525,-25.88008 14.8132,-25.946 0.061,-0.0659 0.1105,23.49164 0.1105,52.35012 v 52.46996 l -14.6157,25.6655 c -8.0387,14.11602 -14.7046,25.75441 -14.8133,25.86308 -0.1087,0.10868 -0.1976,-23.37658 -0.1976,-52.18946 z"
       id="path40" />
    <ellipse
       style="fill:#ffffff;stroke:#1a1a1a;stroke-width:2;stroke-linecap:round;stroke-linejoin:round;stroke-dasharray:none;stroke-dashoffset:0;paint-order:markers fill stroke"
       id="path41"
       cx="1417.2203"
       cy="307.44815"
       rx="113.89831"
       ry="30.024406" />
    <path
       style="fill:#ffffff;stroke:#1a1a1a;stroke-width:2;stroke-linecap:round;stroke-linejoin:round;stroke-dasharray:none;stroke-dashoffset:0;paint-order:markers fill stroke"
       d="m 1303.322,307.44815 113.8983,-213.6786 113.8983,213.6786"
       id="path42" />
    <ellipse
       style="fill:#ffffff;stroke:#1a1a1a;stroke-width:2;stroke-linecap:round;stroke-linejoin:round;stroke-dasharray:none;stroke-dashoffset:0;paint-order:markers fill stroke"
       id="path44"
       cx="1617.8978"
       cy="272.21475"
       rx="67.882248"
       ry="37.572102" />
    <path
       style="fill:#ffffff;stroke:#1a1a1a;stroke-width:2;stroke-linecap:round;stroke-linejoin:round;stroke-dasharray:none;stroke-dashoffset:0;paint-order:markers fill stroke"
       d="m 1555.2942,257.64649 62.6035,-94.81276"
       id="path45" />
    <path
       style="fill:#ffffff;stroke:#1a1a1a;stroke-width:2;stroke-linecap:round;stroke-linejoin:round;stroke-dasharray:none;stroke-dashoffset:0;paint-order:markers fill stroke"
       d="m 1680.6705,257.91395 -61.9931,-95.08022"
       id="path46"
       sodipodi:nodetypes="cc" />
    <path
       style="fill:#ffffff;stroke:none;stroke-width:0.40678;stroke-linecap:round;stroke-linejoin:round;stroke-dasharray:none;stroke-dashoffset:0;paint-order:markers fill stroke"
       d="m 1675.7488,252.38432 c -1.6256,-1.53007 -4.6976,-3.82543 -7.1774,-5.36289 -10.044,-6.22715 -22.9407,-10.24718 -38.5037,-12.00195 -3.9028,-0.44006 -16.1327,-0.61861 -20.4876,-0.29912 -15.1551,1.11185 -28.9418,4.81284 -39.4115,10.57983 -2.3593,1.29957 -6.5659,4.08193 -8.2873,5.48146 -0.6991,0.56841 -1.2712,0.98809 -1.2712,0.9326 0,-0.0555 12.9654,-19.73814 28.812,-43.73926 23.0128,-34.85502 28.8614,-43.58495 29.0576,-43.37288 0.4393,0.47473 58.7224,88.86005 58.6456,88.93499 -0.041,0.04 -0.6604,-0.47876 -1.3765,-1.15278 z"
       id="path47" />
    <path
       style="fill:#ffffff;stroke:none;stroke-width:0.40678;stroke-linecap:round;stroke-linejoin:round;stroke-dasharray:none;stroke-dashoffset:0;paint-order:markers fill stroke"
       d="m 1682.3035,262.69143 c -8.3815,-7.32572 -29.6037,-20.32531 -45.1172,-23.05974 -7.3644,-1.29807 -7.3698,-1.51804 -18.2886,-1.5314 -9.3242,-0.0114 -10.7654,-1.19824 -14.207,-0.76628 -13.7525,1.726 -25.3382,5.92178 -34.0802,10.84332 -2.2688,1.27726 -7.2524,3.78493 -7.6615,4.27781 -0.1414,0.17042 -8.5607,8.59706 -8.6548,8.59706 -0.1928,0 7.7465,-11.32477 19.8093,-29.62777 25.4938,-38.68179 39.2689,-59.45442 42.4951,-64.08156 l 1.8194,-2.60949 2.9642,4.44 c 5.4127,8.10743 42.5076,64.13964 53.4321,80.79834 2.1155,3.22595 5.9178,9.15835 5.8704,9.2058 -0.047,0.0474 2.1115,3.94456 1.6188,3.51391 z"
       id="path48"
       sodipodi:nodetypes="ssssssssscssss" />
    <path
       style="fill:#ffffff;stroke:#1a1a1a;stroke-width:2;stroke-linecap:round;stroke-linejoin:round;stroke-dasharray:none;stroke-dashoffset:0;paint-order:markers fill stroke"
       d="m 1712.9492,279.2212 51.661,-137.69491 51.661,137.69491"
       id="path50" />
    <ellipse
       style="fill:#ffffff;stroke:#1a1a1a;stroke-width:2;stroke-linecap:round;stroke-linejoin:round;stroke-dasharray:none;stroke-dashoffset:0;paint-order:markers fill stroke"
       id="path49"
       cx="1764.6101"
       cy="279.22119"
       rx="51.661018"
       ry="16.474577" />
  </g>
</svg>
