<?xml version="1.0" encoding="UTF-8" standalone="no"?>
<!-- Created with Inkscape (http://www.inkscape.org/) -->

<svg
   width="1920"
   height="1080"
   viewBox="0 0 508 285.75"
   version="1.1"
   id="svg1"
   inkscape:version="1.3.2 (091e20e, 2023-11-25, custom)"
   sodipodi:docname="heads.svg"
   xmlns:inkscape="http://www.inkscape.org/namespaces/inkscape"
   xmlns:sodipodi="http://sodipodi.sourceforge.net/DTD/sodipodi-0.dtd"
   xmlns="http://www.w3.org/2000/svg"
   xmlns:svg="http://www.w3.org/2000/svg">
  <sodipodi:namedview
     id="namedview1"
     pagecolor="#505050"
     bordercolor="#eeeeee"
     borderopacity="1"
     inkscape:showpageshadow="0"
     inkscape:pageopacity="0"
     inkscape:pagecheckerboard="0"
     inkscape:deskcolor="#505050"
     inkscape:document-units="px"
     inkscape:zoom="2.9825758"
     inkscape:cx="1070.3835"
     inkscape:cy="378.69952"
     inkscape:window-width="1920"
     inkscape:window-height="1051"
     inkscape:window-x="-9"
     inkscape:window-y="-9"
     inkscape:window-maximized="1"
     inkscape:current-layer="layer1" />
  <defs
     id="defs1" />
  <g
     inkscape:label="Layer 1"
     inkscape:groupmode="layer"
     id="layer1">
    <circle
       style="fill:#ffffff;stroke:#1a1a1a;stroke-width:0.473806;stroke-linecap:round;stroke-linejoin:round;paint-order:markers fill stroke"
       id="path1"
       cx="46.749275"
       cy="47.329483"
       r="9.6251135" />
    <circle
       style="fill:#ffffff;stroke:#1a1a1a;stroke-width:0.473806;stroke-linecap:round;stroke-linejoin:round;paint-order:markers fill stroke"
       id="circle1"
       cx="46.749275"
       cy="27.605455"
       r="9.6251135" />
    <circle
       style="fill:#ffffff;stroke:#1a1a1a;stroke-width:0.473806;stroke-linecap:round;stroke-linejoin:round;paint-order:markers fill stroke"
       id="circle2"
       cx="46.749275"
       cy="67.05352"
       r="9.6251135" />
    <circle
       style="fill:#ffffff;stroke:#1a1a1a;stroke-width:0.473806;stroke-linecap:round;stroke-linejoin:round;paint-order:markers fill stroke"
       id="circle3"
       cx="66.473305"
       cy="47.329483"
       r="9.6251135" />
    <circle
       style="fill:#ffffff;stroke:#1a1a1a;stroke-width:0.473806;stroke-linecap:round;stroke-linejoin:round;paint-order:markers fill stroke"
       id="circle4"
       cx="27.025246"
       cy="47.329483"
       r="9.6251135" />
    <path
       style="fill:#ffffff;stroke:#1a1a1a;stroke-width:0.29783;stroke-linecap:round;stroke-linejoin:round;paint-order:markers fill stroke"
       d="M 46.749276,56.9546 V 37.704372"
       id="path4" />
    <path
       style="fill:#ffffff;stroke:#1a1a1a;stroke-width:0.29783;stroke-linecap:round;stroke-linejoin:round;paint-order:markers fill stroke"
       d="m 37.124166,47.329488 h 19.25022"
       id="path5" />
    <path
       style="fill:#ffffff;stroke:#1a1a1a;stroke-width:0.29783;stroke-linecap:round;stroke-linejoin:round;paint-order:markers fill stroke"
       d="m 56.848186,47.329488 h 19.25023"
       id="path6" />
    <path
       style="fill:none;stroke:#1a1a1a;stroke-width:0.29783;stroke-linecap:round;stroke-linejoin:round;paint-order:markers fill stroke"
       d="m 67.919086,56.845398 c 0.3466,1.08313 3.04413,-5.513325 2.91364,-9.51591 -0.11367,-3.486759 -2.528,-10.129607 -2.79176,-9.496593"
       id="path7"
       sodipodi:nodetypes="csc" />
    <path
       style="fill:none;stroke:#1a1a1a;stroke-width:0.29783;stroke-linecap:round;stroke-linejoin:round;paint-order:markers fill stroke"
       d="M 36.650356,47.329488 H 17.400126"
       id="path8" />
    <path
       style="fill:none;stroke:#1a1a1a;stroke-width:0.29783;stroke-linecap:round;stroke-linejoin:round;paint-order:markers fill stroke"
       d="m 25.779686,56.873671 c 0,0 -1.8432,-6.302727 -1.83842,-9.544183 0.005,-3.241457 1.86836,-9.54804 1.86836,-9.54804"
       id="path9"
       sodipodi:nodetypes="czc" />
    <path
       style="fill:none;stroke:#1a1a1a;stroke-width:0.29783;stroke-linecap:round;stroke-linejoin:round;paint-order:markers fill stroke"
       d="M 46.749276,17.980341 V 37.230569"
       id="path10" />
    <path
       style="fill:none;stroke:#1a1a1a;stroke-width:0.29783;stroke-linecap:round;stroke-linejoin:round;paint-order:markers fill stroke"
       d="m 56.313026,26.520251 c 0,0 -6.13941,-2.928025 -9.56375,-2.928921 -3.42338,-8.93e-4 -9.56305,2.922875 -9.56305,2.922875"
       id="path11"
       sodipodi:nodetypes="csc" />
    <path
       style="fill:none;stroke:#1a1a1a;stroke-width:0.29783;stroke-linecap:round;stroke-linejoin:round;paint-order:markers fill stroke"
       d="M 46.749276,57.428403 V 76.678627"
       id="path12" />
    <path
       style="fill:none;stroke:#1a1a1a;stroke-width:0.29783;stroke-linecap:round;stroke-linejoin:round;paint-order:markers fill stroke"
       d="m 56.324316,68.034064 c 0,0 -6.25977,2.702902 -9.57504,2.690584 -3.325,-0.01236 -9.58282,-2.769774 -9.58282,-2.769774"
       id="path13"
       sodipodi:nodetypes="cac" />
    <circle
       style="fill:#ffffff;stroke:#1a1a1a;stroke-width:0.473806;stroke-linecap:round;stroke-linejoin:round;paint-order:markers fill stroke"
       id="circle13"
       cx="66.473305"
       cy="67.05352"
       r="9.6251135" />
    <circle
       style="fill:#ffffff;stroke:#1a1a1a;stroke-width:0.473806;stroke-linecap:round;stroke-linejoin:round;paint-order:markers fill stroke"
       id="circle14"
       cx="27.025246"
       cy="67.05352"
       r="9.6251135" />
    <circle
       style="fill:#ffffff;stroke:#1a1a1a;stroke-width:0.473806;stroke-linecap:round;stroke-linejoin:round;paint-order:markers fill stroke"
       id="circle15"
       cx="27.025246"
       cy="26.669165"
       r="9.6251135" />
    <circle
       style="fill:#ffffff;stroke:#1a1a1a;stroke-width:0.473806;stroke-linecap:round;stroke-linejoin:round;paint-order:markers fill stroke"
       id="circle16"
       cx="66.473305"
       cy="27.605455"
       r="9.6251135" />
    <path
       style="fill:none;stroke:#1a1a1a;stroke-width:0.29783;stroke-linecap:round;stroke-linejoin:round;paint-order:markers fill stroke"
       d="m 66.473306,37.230569 c 0,0 2.7079,-6.292188 2.7079,-9.625114 0,-3.332925 -2.7079,-9.625114 -2.7079,-9.625114"
       id="path16"
       sodipodi:nodetypes="cac" />
    <path
       style="fill:none;stroke:#1a1a1a;stroke-width:0.29783;stroke-linecap:round;stroke-linejoin:round;paint-order:markers fill stroke"
       d="m 56.848186,27.605455 c 0,0 7.18936,-3.141567 10.97907,-2.988096 2.92905,0.118617 8.27116,2.988096 8.27116,2.988096"
       id="path17"
       sodipodi:nodetypes="cac" />
    <path
       style="fill:none;stroke:#1a1a1a;stroke-width:0.29783;stroke-linecap:round;stroke-linejoin:round;paint-order:markers fill stroke"
       d="m 67.284926,57.462683 c 0,0 1.5794,6.349903 1.59736,9.590835 0.0179,3.231786 -1.48677,9.580829 -1.48677,9.580829"
       id="path18"
       sodipodi:nodetypes="cac" />
    <path
       style="fill:none;stroke:#1a1a1a;stroke-width:0.29783;stroke-linecap:round;stroke-linejoin:round;paint-order:markers fill stroke"
       d="m 56.901026,68.060624 c 0,0 7.96671,1.336775 11.18266,1.279156 3.21595,-0.05762 7.95321,-1.199736 7.95321,-1.199736"
       id="path19"
       sodipodi:nodetypes="czc" />
    <path
       style="fill:none;stroke:#1a1a1a;stroke-width:0.29783;stroke-linecap:round;stroke-linejoin:round;paint-order:markers fill stroke"
       d="m 26.162286,57.467165 c 0,0 -1.63534,6.350436 -1.66854,9.586353 -0.0332,3.235917 1.46479,9.574659 1.46479,9.574659"
       id="path20"
       sodipodi:nodetypes="czc" />
    <path
       style="fill:none;stroke:#1a1a1a;stroke-width:0.29783;stroke-linecap:round;stroke-linejoin:round;paint-order:markers fill stroke"
       d="m 36.585256,68.171045 c 0,0 -6.36625,0.991372 -9.56001,0.946947 -3.19377,-0.04442 -9.48122,-1.206283 -9.48122,-1.206283"
       id="path21"
       sodipodi:nodetypes="czc" />
    <path
       style="fill:none;stroke:#1a1a1a;stroke-width:0.29783;stroke-linecap:round;stroke-linejoin:round;paint-order:markers fill stroke"
       d="m 25.958536,36.274955 c 0,0 -1.35547,-6.391829 -1.3527,-9.60579 0.003,-3.213962 1.3527,-9.487261 1.3527,-9.487261"
       id="path22"
       sodipodi:nodetypes="czc" />
    <path
       style="fill:none;stroke:#1a1a1a;stroke-width:0.29783;stroke-linecap:round;stroke-linejoin:round;paint-order:markers fill stroke"
       d="m 36.605876,25.744896 c 0,0 -6.35374,-1.303253 -9.58063,-1.281977 -3.2269,0.02128 -9.59233,1.412533 -9.59233,1.412533"
       id="path23"
       sodipodi:nodetypes="czc" />
    <circle
       style="fill:#ffffff;stroke:#1a1a1a;stroke-width:0.666678;stroke-linecap:round;stroke-linejoin:round;paint-order:markers fill stroke"
       id="circle23"
       cx="20.403845"
       cy="132.90431"
       r="13.543219" />
    <ellipse
       style="fill:#808080;stroke:none;stroke-width:0.737839;stroke-linecap:round;stroke-linejoin:round;paint-order:markers fill stroke"
       id="path26"
       cx="27.965628"
       cy="131.82692"
       rx="2.061779"
       ry="3.3360288" />
    <ellipse
       style="fill:#808080;stroke:none;stroke-width:0.737839;stroke-linecap:round;stroke-linejoin:round;paint-order:markers fill stroke"
       id="ellipse26"
       cx="12.911366"
       cy="131.82692"
       rx="2.061779"
       ry="3.3360288" />
    <path
       style="fill:none;stroke:#808080;stroke-width:0.737839;stroke-linecap:round;stroke-linejoin:round;paint-order:markers fill stroke"
       d="m 17.384477,139.05984 c -0.72261,0.3912 -1.69867,2.64558 3.19518,2.56913 4.48304,-0.07 3.98677,-2.34968 3.63283,-2.78932"
       id="path27"
       sodipodi:nodetypes="csc" />
    <path
       style="fill:none;stroke:#808080;stroke-width:0.555447;stroke-linecap:round;stroke-linejoin:round;paint-order:markers fill stroke"
       d="m 21.251207,130.54127 c -0.35444,-0.5538 -2.15007,-0.15322 -2.47376,1.39368 -0.51711,2.47117 1.91916,2.25896 2.03823,2.02081"
       id="path28"
       sodipodi:nodetypes="csc" />
    <circle
       style="fill:#ffffff;stroke:#1a1a1a;stroke-width:0.650663;stroke-linecap:round;stroke-linejoin:round;paint-order:markers fill stroke"
       id="circle28"
       cx="20.194326"
       cy="104.81831"
       r="13.217885" />
    <ellipse
       style="fill:#808080;stroke:none;stroke-width:0.604971;stroke-linecap:round;stroke-linejoin:round;paint-order:markers fill stroke"
       id="ellipse30"
       cx="27.965628"
       cy="100.23866"
       rx="2.061779"
       ry="2.2427061" />
    <ellipse
       style="fill:#808080;stroke:none;stroke-width:0.596146;stroke-linecap:round;stroke-linejoin:round;paint-order:markers fill stroke"
       id="ellipse31"
       cx="12.911366"
       cy="100.17371"
       rx="2.061779"
       ry="2.1777561" />
    <path
       style="fill:none;stroke:#808080;stroke-width:0.462853;stroke-linecap:round;stroke-linejoin:round;paint-order:markers fill stroke"
       d="m 21.297507,97.985249 c -0.36733,-0.371054 -2.22829,-0.102664 -2.56375,0.933778 -0.53592,1.655723 1.98897,1.513543 2.11238,1.353973"
       id="path31"
       sodipodi:nodetypes="csc" />
    <path
       style="fill:none;stroke:#808080;stroke-width:0.58653;stroke-linecap:round;stroke-linejoin:round;paint-order:markers fill stroke"
       d="m 17.320227,105.21346 c -0.73699,0.24238 -1.73246,1.63917 3.25875,1.5918 4.57222,-0.0434 4.06607,-1.45584 3.70509,-1.72823"
       id="path32"
       sodipodi:nodetypes="csc" />
    <circle
       style="fill:#ffffff;stroke:#1a1a1a;stroke-width:0.630528;stroke-linecap:round;stroke-linejoin:round;paint-order:markers fill stroke"
       id="circle32"
       cx="20.618551"
       cy="160.48083"
       r="12.808886" />
    <ellipse
       style="fill:#808080;stroke:none;stroke-width:0.604971;stroke-linecap:round;stroke-linejoin:round;paint-order:markers fill stroke"
       id="ellipse34"
       cx="27.965628"
       cy="163.18857"
       rx="2.061779"
       ry="2.2427061" />
    <ellipse
       style="fill:#808080;stroke:none;stroke-width:0.596146;stroke-linecap:round;stroke-linejoin:round;paint-order:markers fill stroke"
       id="ellipse35"
       cx="12.911366"
       cy="163.12361"
       rx="2.061779"
       ry="2.1777561" />
    <path
       style="fill:none;stroke:#808080;stroke-width:0.462853;stroke-linecap:round;stroke-linejoin:round;paint-order:markers fill stroke"
       d="m 21.297507,163.87446 c -0.36733,-0.37105 -2.22829,-0.10266 -2.56375,0.93378 -0.53592,1.65572 1.98897,1.51354 2.11238,1.35397"
       id="path35"
       sodipodi:nodetypes="csc" />
    <path
       style="fill:none;stroke:#808080;stroke-width:0.58653;stroke-linecap:round;stroke-linejoin:round;paint-order:markers fill stroke"
       d="m 17.320227,166.81619 c -0.73699,0.24239 -1.73246,1.63918 3.25875,1.59181 4.57222,-0.0434 4.06607,-1.45584 3.70509,-1.72823"
       id="path36"
       sodipodi:nodetypes="csc" />
    <circle
       style="fill:#ffffff;stroke:#1a1a1a;stroke-width:1.72748;stroke-linecap:round;stroke-linejoin:round;paint-order:markers fill stroke"
       id="circle36"
       cx="218.12004"
       cy="108.80215"
       r="35.0928" />
    <path
       style="fill:#ffffff;stroke:#1a1a1a;stroke-width:1.08588;stroke-linecap:round;stroke-linejoin:round;paint-order:markers fill stroke"
       d="M 218.11999,143.89495 V 73.709367"
       id="path37" />
    <path
       style="fill:#ffffff;stroke:#1a1a1a;stroke-width:1.08588;stroke-linecap:round;stroke-linejoin:round;paint-order:markers fill stroke"
       d="m 183.02721,108.80217 h 70.18557"
       id="path38" />
    <path
       style="fill:none;stroke:#333333;stroke-width:3;stroke-linecap:round;stroke-linejoin:round;paint-order:markers fill stroke"
       d="m 199.53527,110.21171 c 0,0 6.59394,-2.70195 9.97363,-2.25818 1.38169,0.18142 3.7009,1.94454 3.7009,1.94454"
       id="path42"
       sodipodi:nodetypes="cac" />
    <path
       style="fill:none;stroke:#333333;stroke-width:3;stroke-linecap:round;stroke-linejoin:round;paint-order:markers fill stroke"
       d="m 236.0425,110.21171 c 0,0 -6.59394,-2.70195 -9.97363,-2.25818 -1.38169,0.18142 -3.7009,1.94454 -3.7009,1.94454"
       id="path43"
       sodipodi:nodetypes="cac" />
    <ellipse
       style="fill:#666666;stroke:#666666;stroke-width:0.680169;stroke-linecap:round;stroke-linejoin:round;paint-order:markers fill stroke"
       id="path44"
       cx="186.9482"
       cy="144.44945"
       rx="6.0282636"
       ry="3.3830271"
       transform="rotate(-8.7784937)" />
    <ellipse
       style="fill:#666666;stroke:#666666;stroke-width:0.680169;stroke-linecap:round;stroke-linejoin:round;paint-order:markers fill stroke"
       id="ellipse44"
       cx="243.42732"
       cy="78.56044"
       rx="6.0282636"
       ry="3.3830271"
       transform="rotate(8.7784937)" />
    <path
       style="fill:none;stroke:#666666;stroke-width:0.5;stroke-linecap:round;stroke-linejoin:round;paint-order:markers fill stroke"
       d="m 214.20136,130.84793 c -1.57221,1.3311 0.41804,4.78775 1.27711,2.15543 0.43807,0.82881 1.15295,1.28069 2.5667,1.08406 1.07204,-0.14911 1.96573,-0.007 2.88241,-1.00839 0.4543,2.23147 3.20383,0.16648 1.65522,-1.89529"
       id="path45"
       sodipodi:nodetypes="ccscc" />
    <path
       style="fill:none;stroke:#666666;stroke-width:0.5;stroke-linecap:round;stroke-linejoin:round;paint-order:markers fill stroke"
       d="m 214.77798,127.33624 c 2.74812,-1.69466 2.42899,-12.99791 1.19181,-21.38998"
       id="path46"
       sodipodi:nodetypes="cc" />
    <path
       style="fill:none;stroke:#808080;stroke-width:1;stroke-linecap:round;stroke-linejoin:round;paint-order:markers fill stroke"
       d="m 193.72905,133.19313 c 0,0 6.89827,22.08186 16.42417,24.39099 4.66929,1.13186 11.41975,1.00487 16.41129,0 5.92211,-1.1922 11.91479,-15.98458 15.94654,-24.39099 0.72673,-1.3323 5.55417,-47.049462 0.0598,-49.563586 -14.32116,-6.553164 -37.45156,-5.884858 -48.84185,0.781619 -6.66572,3.901292 0,48.781967 0,48.781967"
       id="path47"
       sodipodi:nodetypes="csscssc" />
    <path
       style="fill:none;stroke:#808080;stroke-width:1;stroke-linecap:round;stroke-linejoin:round;paint-order:markers fill stroke"
       d="m 244.88704,111.71171 c -0.24672,-0.97002 3.7654,-3.08758 4.95545,-0.73025 2.53002,5.01162 0.72861,10.1215 -0.57581,13.98829 -0.89647,2.65749 -5.29783,3.34695 -6.17471,5.36526"
       id="path48"
       sodipodi:nodetypes="cssc" />
    <path
       style="fill:none;stroke:#808080;stroke-width:1;stroke-linecap:round;stroke-linejoin:round;paint-order:markers fill stroke"
       d="m 191.29919,111.71171 c 0.24672,-0.97002 -3.7654,-3.08758 -4.95545,-0.73025 -2.53002,5.01162 -0.72861,10.1215 0.57581,13.98829 0.89647,2.65749 5.29783,3.34695 6.17471,5.36526"
       id="path49"
       sodipodi:nodetypes="cssc" />
    <path
       style="fill:none;stroke:#808080;stroke-width:1;stroke-linecap:round;stroke-linejoin:round;paint-order:markers fill stroke"
       d="m 209.13253,146.5935 c -0.62705,-2.60347 5.3063,-5.63208 8.90726,-2.76 3.07323,2.45117 7.377,1.69691 8.78182,1.44273"
       id="path50"
       sodipodi:nodetypes="csc" />
    <ellipse
       style="fill:none;stroke:#808080;stroke-width:0.247682;stroke-linecap:round;stroke-linejoin:round;paint-order:markers fill stroke"
       id="ellipse55"
       cx="318.90747"
       cy="108.20445"
       rx="10.751726"
       ry="24.857025" />
    <circle
       style="fill:#ffffff;stroke:#1a1a1a;stroke-width:1.59955;stroke-linecap:round;stroke-linejoin:round;paint-order:markers fill stroke"
       id="circle50"
       cx="298.10999"
       cy="108.09502"
       r="32.493999" />
    <path
       style="fill:#ffffff;stroke:#1a1a1a;stroke-width:1.00546;stroke-linecap:round;stroke-linejoin:round;paint-order:markers fill stroke"
       d="m 265.61594,108.09504 h 64.98801"
       id="path51" />
    <path
       style="fill:none;stroke:#1a1a1a;stroke-width:1.00546;stroke-linecap:round;stroke-linejoin:round;paint-order:markers fill stroke"
       d="m 302.99086,140.22037 c 1.17011,3.6566 10.27686,-18.61275 9.83633,-32.12533 -0.38375,-11.771141 -8.53442,-34.197145 -9.42487,-32.060122"
       id="path52"
       sodipodi:nodetypes="csc" />
    <ellipse
       style="fill:none;stroke:#808080;stroke-width:0.20681;stroke-linecap:round;stroke-linejoin:round;paint-order:markers fill stroke"
       id="path53"
       cx="277.05252"
       cy="108.20445"
       rx="7.4899039"
       ry="24.87746" />
    <path
       style="fill:none;stroke:#808080;stroke-width:0.25;stroke-linecap:round;stroke-linejoin:round;paint-order:markers fill stroke"
       d="M 277.05251,83.347427 V 133.06148"
       id="path55" />
    <path
       style="fill:none;stroke:#808080;stroke-width:0.25;stroke-linecap:round;stroke-linejoin:round;paint-order:markers fill stroke"
       d="m 277.05251,133.06148 h 41.85496"
       id="path56" />
    <path
       style="display:inline;fill:none;stroke:#808080;stroke-width:0.25;stroke-linecap:round;stroke-linejoin:round;paint-order:markers fill stroke"
       d="m 312.82719,108.09504 v 58.50173"
       id="path57" />
    <path
       style="fill:none;stroke:#808080;stroke-width:1;stroke-linecap:round;stroke-linejoin:round;paint-order:markers fill stroke"
       d="m 300.61334,158.52928 c 2.25688,1.45836 14.16274,1.46216 18.04702,0.43864 5.7842,-1.52416 10.86362,-33.78129 11.82074,-42.98426 0.98699,-6.57656 -1.75459,-20.659029 -3.75146,-23.791569 -5.706,-8.951151 -13.37496,-12.245517 -20.83124,-13.221146 -9.57229,-1.252504 -21.41011,-2.029658 -28.74964,4.296512 -6.56033,5.654552 -7.58698,19.509793 -7.58863,24.849933 -0.005,16.54321 4.99477,22.62217 5.83806,24.34818 3.91563,6.26847 19.05801,22.08507 25.21515,26.06371 z"
       id="path59"
       sodipodi:nodetypes="sscssascs" />
    <path
       style="fill:none;stroke:#333333;stroke-width:3;stroke-linecap:round;stroke-linejoin:round;paint-order:markers fill stroke"
       d="m 292.85737,109.39626 c 0,0 6.59394,-2.70195 9.97363,-2.25818 1.38169,0.18142 3.7009,1.94454 3.7009,1.94454"
       id="path60"
       sodipodi:nodetypes="cac" />
    <path
       style="fill:none;stroke:#333333;stroke-width:3;stroke-linecap:round;stroke-linejoin:round;paint-order:markers fill stroke"
       d="m 330.89477,109.39626 c 0,0 -6.59394,-2.70195 -9.97363,-2.25818 -1.38169,0.18142 -3.7009,1.94454 -3.7009,1.94454"
       id="path61"
       sodipodi:nodetypes="cac" />
    <ellipse
       style="fill:#666666;stroke:#666666;stroke-width:0.680169;stroke-linecap:round;stroke-linejoin:round;paint-order:markers fill stroke"
       id="ellipse61"
       cx="279.78412"
       cy="158.97594"
       rx="6.0282636"
       ry="3.3830271"
       transform="rotate(-8.7784937)" />
    <ellipse
       style="fill:#666666;stroke:#666666;stroke-width:0.680169;stroke-linecap:round;stroke-linejoin:round;paint-order:markers fill stroke"
       id="ellipse62"
       cx="-337.95398"
       cy="63.582439"
       rx="6.0282636"
       ry="3.3830271"
       transform="matrix(-0.98828574,-0.15261489,-0.15261489,0.98828574,0,0)" />
    <path
       style="fill:none;stroke:#808080;stroke-width:0.5;stroke-linecap:round;stroke-linejoin:round;paint-order:markers fill stroke"
       d="m 310.29414,130.99237 c -1.21576,2.17735 -0.15825,2.02346 0.93133,1.6528 1.717,2.47775 3.89936,1.29698 4.79834,-1.84118"
       id="path62"
       sodipodi:nodetypes="ccc" />
    <path
       style="fill:none;stroke:#808080;stroke-width:0.499999;stroke-linecap:round;stroke-linejoin:round;paint-order:markers fill stroke"
       d="m 315.01608,105.38172 c -1.03134,7.48454 -3.06311,17.07547 0.56454,21.8918"
       id="path63"
       sodipodi:nodetypes="cc" />
    <path
       style="fill:none;stroke:#808080;stroke-width:0.499999;stroke-linecap:round;stroke-linejoin:round;paint-order:markers fill stroke"
       d="m 315.39243,132.5426 c 0.38696,0.4837 2.7242,0.34729 2.00726,-1.19182"
       id="path64"
       sodipodi:nodetypes="cc" />
    <path
       style="fill:none;stroke:#808080;stroke-width:0.850697;stroke-linecap:round;stroke-linejoin:round;paint-order:markers fill stroke"
       d="m 305.51855,146.04089 c -0.43716,-2.70252 3.69935,-5.84635 6.20981,-2.865 2.14254,2.54442 5.14296,1.76147 6.12235,1.49762"
       id="path65"
       sodipodi:nodetypes="csc" />
    <path
       style="fill:none;stroke:#333333;stroke-width:1;stroke-linecap:round;stroke-linejoin:round;paint-order:markers fill stroke"
       d="m 279.53942,111.95607 c -0.39517,-0.17334 -5.94215,-3.32062 -7.75187,-1.97575 -3.20203,2.37954 -3.52838,14.3083 0.35575,18.27865 0.47925,0.48989 3.59975,2.54713 5.2697,4.24469"
       id="path66"
       sodipodi:nodetypes="cssc" />
  </g>
</svg>
